<svg xmlns="http://www.w3.org/2000/svg" viewBox="0 0 1024 320" role="img" aria-label="WPP">
  <path fill="#b4b4b4" d="M95 74l45 172h5l43-172h55l43 172h5l45-172h58l-75 246h-61l-42-160h-5l-42 160h-61L36 74h59zm419 0c29 0 52 8 69 24 17 16 25 37 25 64 0 28-8 50-25 66-17 16-40 24-69 24h-71v68h-55V74h126zm-71 132h62c15 0 27-4 35-12 8-8 12-18 12-32 0-13-4-24-12-31-8-8-20-12-35-12h-62v87zm329-132c29 0 52 8 69 24 17 16 25 37 25 64 0 28-8 50-25 66-17 16-40 24-69 24h-71v68h-55V74h126zm-71 132h62c15 0 27-4 35-12 8-8 12-18 12-32 0-13-4-24-12-31-8-8-20-12-35-12h-62v87z"/>
</svg>
